<svg width="40" height="59" viewBox="0 0 40 59" fill="none" xmlns="http://www.w3.org/2000/svg">
<path d="M33.8194 33.4015L33.7758 32.4062L33.6888 31.4109C34.2111 31.3578 34.7479 31.3313 35.2992 31.3313C36.634 31.3313 37.5626 31.5967 38.0849 32.1275C38.6072 32.6318 38.8683 33.5076 38.8683 34.7551C38.8683 42.85 37.374 49.1667 34.3852 53.7051C33.3406 55.271 31.9768 56.545 30.2938 57.527C28.6398 58.509 26.7537 59 24.6355 59C21.7628 59 19.601 58.2834 18.1502 56.8502C16.6993 55.4435 15.9739 53.8644 15.9739 52.1127C15.9739 50.3875 16.3946 49.0207 17.2361 48.0121C18.1066 47.0301 19.1803 46.5391 20.457 46.5391C21.2695 46.5391 22.0239 46.7647 22.7203 47.2159C21.4726 48.7818 20.8487 50.3345 20.8487 51.8738C20.8487 55.0852 22.2561 56.691 25.0707 56.691C27.8854 56.691 30.0181 55.1781 31.469 52.1525C32.9198 49.1269 33.7758 44.9069 34.037 39.4926C32.9924 41.2177 31.6866 42.5315 30.1197 43.4339C28.5528 44.3097 26.9133 44.7476 25.2013 44.7476C22.4737 44.7476 20.1378 43.7126 18.1937 41.6424C16.2786 39.5722 15.321 36.6925 15.321 33.0034C15.321 27.9076 16.6703 23.5018 19.3689 19.7861C20.7037 17.9548 22.4157 16.5083 24.5049 15.4467C26.6231 14.3585 29.0316 13.8144 31.7301 13.8144C34.4287 13.8144 36.4744 14.4912 37.8672 15.8448C39.2891 17.1718 40 18.7908 40 20.7018C40 22.5861 39.3906 24.0724 38.1719 25.1606C36.9822 26.2222 35.5604 26.753 33.9064 26.753C31.498 26.753 29.6844 25.9834 28.4657 24.444C29.2492 24.6298 29.9891 24.7227 30.6855 24.7227C32.3395 24.7227 33.6308 24.2715 34.5593 23.3691C35.5169 22.4667 35.9956 21.4316 35.9956 20.2638C35.9956 19.0695 35.5604 18.0875 34.6899 17.3178C33.8194 16.5216 32.5861 16.1235 30.9902 16.1235C28.872 16.1235 26.9423 17.0126 25.2013 18.7908C23.4893 20.569 22.1835 22.7188 21.284 25.2402C20.4135 27.7616 19.9782 30.4024 19.9782 33.1626C19.9782 35.8963 20.6166 38.0461 21.8934 39.612C23.1991 41.1779 24.7951 41.9609 26.6812 41.9609C28.5673 41.9609 30.2213 41.1912 31.6431 39.6518C33.0939 38.0859 33.8194 36.0025 33.8194 33.4015Z" fill="#E8C6C2"/>
<path d="M12.5789 21.8961C12.1146 25.4791 11.8825 28.2393 11.8825 30.1768C11.8825 32.1143 12.0856 33.5209 12.4918 34.3968C10.5477 34.0252 9.21291 33.3219 8.48749 32.2868C7.76206 31.2517 7.39935 29.8318 7.39935 28.027C7.39935 27.0715 7.58796 24.9881 7.96518 21.7767C4.97642 11.9035 2.32136 5.38776 0 2.22942C0.841494 1.53936 1.6975 1.19433 2.56801 1.19433C3.46754 1.19433 4.17845 1.31377 4.70076 1.55263C5.22307 1.76496 5.73087 2.1498 6.22416 2.70715C6.71745 3.23797 7.18172 4.14035 7.61698 5.41431C8.45847 7.88259 9.44505 11.7708 10.5767 17.0789L11.099 19.8259C13.8847 15.7917 16.148 11.9831 17.889 8.40014C19.6591 4.7906 20.6892 1.99055 20.9793 0C22.7203 1.11471 23.5909 2.62753 23.5909 4.53846C23.5909 6.42285 19.9202 12.2087 12.5789 21.8961Z" fill="#E8C6C2"/>
</svg>
